<svg viewBox="0 0 24 25" fill="none" xmlns="http://www.w3.org/2000/svg">
<path d="M11.5027 8.3053C10.6348 8.96314 9.81361 9.68054 9.04518 10.4523C5.42382 14.0739 3.59022 18.1094 4.9476 19.4682C6.30497 20.8257 10.3414 18.9907 13.9615 15.3703C14.7333 14.6014 15.4506 13.7797 16.1084 12.9113" stroke="currentColor" stroke-width="1.6496" stroke-linecap="round" stroke-linejoin="round"/>
<path d="M16.1071 12.911C18.2425 15.7457 19.1122 18.4122 18.0579 19.4666C16.6992 20.8254 12.664 18.9904 9.04266 15.37C5.42385 11.7471 3.59025 7.71289 4.94762 6.35414C6.00194 5.30101 8.6683 6.17076 11.5027 8.30503" stroke="currentColor" stroke-width="1.6496" stroke-linecap="round" stroke-linejoin="round"/>
<path d="M10.8711 12.9119C10.8711 13.0808 10.9382 13.2428 11.0576 13.3622C11.177 13.4816 11.3389 13.5487 11.5078 13.5487C11.6766 13.5487 11.8386 13.4816 11.958 13.3622C12.0774 13.2428 12.1444 13.0808 12.1444 12.9119C12.1444 12.7431 12.0774 12.5811 11.958 12.4617C11.8386 12.3423 11.6766 12.2752 11.5078 12.2752C11.3389 12.2752 11.177 12.3423 11.0576 12.4617C10.9382 12.5811 10.8711 12.7431 10.8711 12.9119ZM14.0672 7.36742C13.6661 7.29738 13.6661 6.72306 14.0672 6.6543C14.7756 6.53106 15.4312 6.19963 15.9506 5.70226C16.4699 5.2049 16.8293 4.56414 16.9831 3.86167L17.006 3.75088C17.0926 3.35612 17.6554 3.35357 17.7445 3.74706L17.7751 3.87568C17.9346 4.57503 18.2972 5.21166 18.8174 5.70557C19.3375 6.19948 19.992 6.52866 20.6987 6.65175C21.1011 6.72179 21.1011 7.29993 20.6987 7.36869C19.992 7.49178 19.3375 7.82096 18.8174 8.31488C18.2972 8.80879 17.9346 9.44541 17.7751 10.1448L17.7445 10.2734C17.6554 10.6682 17.0926 10.6656 17.006 10.2708L16.9805 10.1601C16.8268 9.45758 16.4673 8.81682 15.948 8.31946C15.4287 7.82209 14.773 7.49066 14.0646 7.36742H14.0672Z" stroke="currentColor" stroke-width="1.6496" stroke-linecap="round" stroke-linejoin="round"/>
</svg>
