<svg  viewBox="0 0 24 25" fill="none" xmlns="http://www.w3.org/2000/svg">
<g clip-path="url(#clip0_267_1595)">
<path d="M20 3.45337H19V2.45337C19 1.90337 18.55 1.45337 18 1.45337C17.45 1.45337 17 1.90337 17 2.45337V3.45337H7V2.45337C7 1.90337 6.55 1.45337 6 1.45337C5.45 1.45337 5 1.90337 5 2.45337V3.45337H4C2.9 3.45337 2 4.35337 2 5.45337V21.4534C2 22.5534 2.9 23.4534 4 23.4534H20C21.1 23.4534 22 22.5534 22 21.4534V5.45337C22 4.35337 21.1 3.45337 20 3.45337ZM19 21.4534H5C4.45 21.4534 4 21.0034 4 20.4534V8.45337H20V20.4534C20 21.0034 19.55 21.4534 19 21.4534Z" fill="currentColor"/>
</g>
<defs>
<clipPath id="clip0_267_1595">
<rect width="24" height="24" fill="white" transform="translate(0 0.453369)"/>
</clipPath>
</defs>
</svg>
