<svg width="24" height="24" viewBox="0 0 24 24" fill="none" xmlns="http://www.w3.org/2000/svg">
<path d="M12.0014 9.2667L20.4874 0.780701C21.2684 -0.000229669 22.5345 -0.000231553 23.3154 0.780699V0.780699C24.0964 1.56163 24.0964 2.82777 23.3154 3.6087L14.8294 12.0947L23.3154 20.5807C24.0964 21.3616 24.0964 22.6278 23.3154 23.4087V23.4087C22.5345 24.1896 21.2684 24.1896 20.4874 23.4087L12.0014 14.9227L3.51544 23.4087C2.73451 24.1896 1.46837 24.1896 0.687438 23.4087V23.4087C-0.0934934 22.6278 -0.0934929 21.3616 0.687438 20.5807L9.17344 12.0947L0.687439 3.6087C-0.0934915 2.82777 -0.0934933 1.56163 0.687438 0.780699V0.780699C1.46837 -0.00023159 2.73451 -0.000231257 3.51544 0.7807L12.0014 9.2667Z" fill="#989898"/>
</svg>
