<svg viewBox="0 0 24 25" fill="none" xmlns="http://www.w3.org/2000/svg">
<g clip-path="url(#clip0_267_1600)">
<path fill-rule="evenodd" clip-rule="evenodd" d="M5.23678 17.8238C7.15254 19.1658 9.48384 19.9534 12 19.9534C17 19.9534 21.27 16.8434 23 12.4534C21.8883 9.63244 19.7279 7.34004 16.9989 6.06171L15.4785 7.58205C17.7812 8.44819 19.6995 10.1649 20.82 12.4534C19.17 15.8234 15.8 17.9534 12 17.9534C10.0514 17.9534 8.21594 17.3933 6.66744 16.3932L5.23678 17.8238ZM8.20006 14.8605C8.99938 16.1173 10.4045 16.9534 12 16.9534C14.48 16.9534 16.5 14.9334 16.5 12.4534C16.5 10.8579 15.6639 9.45275 14.4072 8.65343L12.9288 10.1318C13.8493 10.5007 14.5 11.4015 14.5 12.4534C14.5 13.8334 13.38 14.9534 12 14.9534C10.9482 14.9534 10.0474 14.3027 9.67843 13.3822L8.20006 14.8605ZM9.52141 12.125L7.74073 13.9057C7.58471 13.4498 7.5 12.9612 7.5 12.4534C7.5 9.97337 9.52 7.95337 12 7.95337C12.5079 7.95337 12.9964 8.03808 13.4523 8.1941L11.6716 9.97478C10.5541 10.1216 9.66824 11.0075 9.52141 12.125ZM14.4002 7.24624C13.6285 7.05404 12.8239 6.95337 12 6.95337C8.21 6.95337 4.83 9.08337 3.18 12.4534C3.82892 13.7787 4.74389 14.9123 5.84642 15.8L4.43591 17.2105C2.92547 15.9484 1.73407 14.3161 1 12.4534C2.73 8.06337 7 4.95337 12 4.95337C13.4036 4.95337 14.7497 5.19846 15.9982 5.64815L14.4002 7.24624Z" fill="currentColor"/>
<path fill-rule="evenodd" clip-rule="evenodd" d="M20.7071 3.74626C21.0976 4.13679 21.0976 4.76995 20.7071 5.16048L4.70711 21.1605C4.31658 21.551 3.68342 21.551 3.29289 21.1605C2.90237 20.77 2.90237 20.1368 3.29289 19.7463L19.2929 3.74626C19.6834 3.35574 20.3166 3.35574 20.7071 3.74626Z" fill="currentColor"/>
</g>
<defs>
<clipPath id="clip0_267_1600">
<rect width="24" height="24" fill="white" transform="translate(0 0.453369)"/>
</clipPath>
</defs>
</svg>
