<svg viewBox="0 0 42 47" fill="none" xmlns="http://www.w3.org/2000/svg">
<path d="M25.1248 39.875C22.8073 39.875 20.2536 40.8125 17.923 42.0219C14.1767 43.9662 12.3036 44.9394 11.3811 44.3188C10.4586 43.7 10.633 41.7781 10.9836 37.9362L11.0623 37.0625" stroke="currentColor" stroke-width="3.75" stroke-linecap="round"/>
<circle cx="13.875" cy="23" r="1.875" fill="currentColor"/>
<circle cx="28.875" cy="23" r="1.875" fill="currentColor"/>
<path d="M16.6875 26.75H26.0625V26.75C26.0625 28.8211 24.3836 30.5 22.3125 30.5H20.4375C18.3664 30.5 16.6875 28.8211 16.6875 26.75V26.75Z" fill="currentColor"/>
<path fill-rule="evenodd" clip-rule="evenodd" d="M22.7813 5.74874C23.6219 5.26244 24.1875 4.35352 24.1875 3.3125C24.1875 1.7592 22.9283 0.5 21.375 0.5C19.8217 0.5 18.5625 1.7592 18.5625 3.3125C18.5625 4.35352 19.1281 5.26244 19.9688 5.74874V8.00002H17.4878H17.4878C14.0691 7.99997 11.3131 7.99993 9.1457 8.29144C6.8957 8.59406 5.00096 9.24145 3.49668 10.7467C1.99143 12.251 1.34404 14.1457 1.04142 16.3957C0.749913 18.5632 0.749952 21.319 0.750001 24.7377V24.7378V24.7378V25.0122V25.0123V25.0123C0.749952 28.431 0.749913 31.1869 1.04142 33.3543C1.34403 35.6043 1.99139 37.4989 3.49653 39.0032C5.17553 40.6842 7.34044 41.2957 9.9427 41.5499C10.9733 41.6506 11.8904 40.8967 11.9911 39.8661C12.0918 38.8355 11.3379 37.9183 10.3073 37.8177C8.03502 37.5957 6.91897 37.1235 6.14934 36.3527L6.14776 36.3511C5.45592 35.6599 5.00468 34.6889 4.75796 32.8545C4.50399 30.9662 4.50001 28.4634 4.50001 24.875C4.50001 21.2867 4.50399 18.7839 4.75796 16.8956C5.00468 15.0612 5.45705 14.089 6.1489 13.3978C6.84015 12.7059 7.81116 12.2547 9.64556 12.008C11.5339 11.754 14.0367 11.75 17.625 11.75H25.125C28.7133 11.75 31.2161 11.754 33.1044 12.008C34.9388 12.2547 35.911 12.7071 36.6022 13.3989C37.2941 14.0902 37.7453 15.0612 37.992 16.8956C38.246 18.7839 38.25 21.2867 38.25 24.875C38.25 28.4634 38.246 30.9662 37.992 32.8545C37.7453 34.6889 37.293 35.661 36.6011 36.3523C35.9098 37.0441 34.9388 37.4953 33.1044 37.7421C31.2161 37.996 28.7133 38 25.125 38C24.0895 38 23.25 38.8395 23.25 39.875C23.25 40.9106 24.0895 41.75 25.125 41.75H25.2622C28.6809 41.7501 31.4369 41.7501 33.6043 41.4586C35.8546 41.1559 37.7495 40.5084 39.2539 39.0028C40.7587 37.4986 41.406 35.604 41.7086 33.3543C42.0001 31.1869 42.0001 28.431 42 25.0122V24.7378C42.0001 21.3191 42.0001 18.5632 41.7086 16.3957C41.406 14.146 40.7587 12.2514 39.2539 10.7473C37.7495 9.24161 35.8546 8.5941 33.6043 8.29144C31.4369 7.99993 28.681 7.99997 25.2622 8.00002H25.2622H22.7813V5.74874Z" fill="currentColor"/>
</svg>
