<svg  viewBox="0 0 24 25" fill="none" xmlns="http://www.w3.org/2000/svg">
<g clip-path="url(#clip0_294_5631)">
<path d="M12 19.4534C11.4477 19.4534 11 19.0057 11 18.4534V13.4534H6C5.44772 13.4534 5 13.0057 5 12.4534C5 11.9011 5.44772 11.4534 6 11.4534H11V6.45337C11 5.90108 11.4477 5.45337 12 5.45337C12.5523 5.45337 13 5.90108 13 6.45337V11.4534H18C18.5523 11.4534 19 11.9011 19 12.4534C19 13.0057 18.5523 13.4534 18 13.4534H13V18.4534C13 19.0057 12.5523 19.4534 12 19.4534Z" fill="currentColor"/>
</g>
<defs>
<clipPath id="clip0_294_5631">
<rect width="24" height="24" fill="white" transform="translate(0 0.453369)"/>
</clipPath>
</defs>
</svg>
