<svg viewBox="0 0 24 25" fill="none" xmlns="http://www.w3.org/2000/svg">
<g clip-path="url(#clip0_284_3915)">
<path d="M15.5006 14.4535H14.7106L14.4306 14.1835C15.6306 12.7835 16.2506 10.8735 15.9106 8.84351C15.4406 6.06351 13.1206 3.84351 10.3206 3.50351C6.09063 2.98351 2.53063 6.54351 3.05063 10.7735C3.39063 13.5735 5.61063 15.8935 8.39063 16.3635C10.4206 16.7035 12.3306 16.0835 13.7306 14.8835L14.0006 15.1635V15.9535L18.2506 20.2035C18.6606 20.6135 19.3306 20.6135 19.7406 20.2035C20.1506 19.7935 20.1506 19.1235 19.7406 18.7135L15.5006 14.4535ZM9.50063 14.4535C7.01063 14.4535 5.00063 12.4435 5.00063 9.95351C5.00063 7.46351 7.01063 5.45351 9.50063 5.45351C11.9906 5.45351 14.0006 7.46351 14.0006 9.95351C14.0006 12.4435 11.9906 14.4535 9.50063 14.4535Z" fill="currentColor"/>
</g>
<defs>
<clipPath id="clip0_284_3915">
<rect width="24" height="24" fill="white" transform="translate(0 0.453369)"/>
</clipPath>
</defs>
</svg>
