<svg viewBox="0 0 24 25" fill="none" xmlns="http://www.w3.org/2000/svg">
<g clip-path="url(#clip0_284_4094)">
<path d="M12 2.45337C6.5 2.45337 2 6.95337 2 12.4534C2 17.9534 6.5 22.4534 12 22.4534C17.5 22.4534 22 17.9534 22 12.4534C22 6.95337 17.5 2.45337 12 2.45337ZM12 20.4534C7.59 20.4534 4 16.8634 4 12.4534C4 8.04337 7.59 4.45337 12 4.45337C16.41 4.45337 20 8.04337 20 12.4534C20 16.8634 16.41 20.4534 12 20.4534ZM12.5 7.45337H11V13.4534L16.2 16.6534L17 15.3534L12.5 12.6534V7.45337Z" fill="currentColor"/>
</g>
<defs>
<clipPath id="clip0_284_4094">
<rect width="24" height="24" fill="white" transform="translate(0 0.453369)"/>
</clipPath>
</defs>
</svg>
