<svg width="183" height="65" viewBox="0 0 183 65" fill="none" xmlns="http://www.w3.org/2000/svg">
<path d="M42.9321 24.8372C41.8005 24.8372 40.8809 25.7546 40.8809 26.8836C40.8809 28.0125 41.8005 28.93 42.9321 28.93C44.0637 28.93 44.9833 28.0125 44.9833 26.8836C44.9833 25.7546 44.0637 24.8372 42.9321 24.8372Z" fill="#80D6F7"/>
<path d="M35.9221 36.3799L32.5137 38.781L37.0229 48.4538H41.5493L35.9221 36.3799Z" fill="white"/>
<path d="M38.9255 27.1698L26.4302 35.966L26.4917 33.5307C26.5088 32.7906 26.1259 32.0948 25.4866 31.7197C24.8473 31.3411 24.0542 31.3377 23.4115 31.7094L19.1894 34.1583L24.7755 22.1731L29.2916 31.8663L32.6967 29.4686L26.6319 16.4534H22.9124L12.9879 37.7498L12.9229 37.7873L12.9503 37.835L8 48.4525H12.5229L16.1638 40.6386L22.297 37.0847L22.2252 39.9326C22.2047 40.7068 22.6252 41.4231 23.3089 41.788C23.6132 41.9483 23.9448 42.0302 24.2764 42.0302C24.6935 42.0302 25.1072 41.904 25.4593 41.655L41.2913 30.5123L38.9255 27.1698Z" fill="white"/>
<path d="M24.2793 42.0313C23.9477 42.0313 23.616 41.9529 23.3118 41.7891C22.628 41.4242 22.2075 40.7045 22.2281 39.9337L22.2998 37.0858L14.9873 41.3253L12.9258 37.785L23.4143 31.7037C24.0571 31.3319 24.8502 31.3353 25.4895 31.7139C26.1288 32.0925 26.5151 32.7849 26.4946 33.525L26.433 35.9603L38.9284 27.1641L41.2941 30.5065L25.4621 41.6493C25.11 41.8983 24.6963 42.0245 24.2793 42.0245V42.0313Z" fill="url(#paint0_linear_264_3725)"/>
<path d="M70.4001 35.4148C70.4001 36.596 70.1954 37.6829 69.7861 38.6836C69.3768 39.6606 68.7864 40.5004 68.0111 41.2028C67.2593 41.9052 66.3502 42.4507 65.2796 42.8352C64.2091 43.2198 63.0166 43.412 61.6942 43.412C60.3717 43.412 59.1792 43.2198 58.1087 42.8352C57.0382 42.4507 56.1172 41.9052 55.3458 41.2028C54.594 40.5004 54.0155 39.6606 53.6062 38.6836C53.1969 37.6868 52.9922 36.596 52.9922 35.4148V25.7499C52.9922 24.5687 53.1969 23.4935 53.6062 22.5164C54.0155 21.5197 54.594 20.6682 55.3458 19.9658C56.1211 19.2634 57.0421 18.7179 58.1087 18.3334C59.1792 17.9488 60.3717 17.7565 61.6942 17.7565C63.0166 17.7565 64.2091 17.9488 65.2796 18.3334C66.3502 18.7179 67.2593 19.2634 68.0111 19.9658C68.7864 20.6682 69.3768 21.5197 69.7861 22.5164C70.1954 23.4935 70.4001 24.5687 70.4001 25.7499V35.4148ZM78.3542 47.3597H73.6431V17.3092H78.3542V27.6216H82.4514V32.1147H78.3542V47.3597ZM57.7033 34.9008C57.7033 36.2624 58.0339 37.3298 58.6912 38.0989C59.3524 38.8719 60.3521 39.2565 61.6942 39.2565C63.0363 39.2565 64.0359 38.8719 64.6971 38.0989C65.3584 37.3258 65.689 36.2624 65.689 34.9008V26.2561C65.689 24.8944 65.3584 23.8271 64.6971 23.0579C64.0359 22.2849 63.0363 21.9003 61.6942 21.9003C60.3521 21.9003 59.3484 22.2849 58.6912 23.0579C58.03 23.831 57.7033 24.8944 57.7033 26.2561V34.9008ZM111.222 36.4351H106.511V17.3092H111.222V36.4351ZM110.742 47.4931C109.238 46.9045 107.715 46.2805 106.168 45.6213C104.622 44.9856 103.094 44.3185 101.595 43.6122C101.209 43.4317 100.855 43.2394 100.536 43.0353C100.241 42.8313 99.934 42.6155 99.6152 42.3879C99.2964 42.6155 98.9776 42.8313 98.6589 43.0353C98.3637 43.2394 98.0213 43.4317 97.6356 43.6122C96.1321 44.3146 94.609 44.9856 93.0622 45.6213C91.5154 46.2805 89.9923 46.9045 88.4888 47.4931L86.2022 43.8162C87.6348 43.2708 89.1264 42.6822 90.6732 42.0465C92.2199 41.3872 93.6644 40.7319 95.0065 40.0727C95.8015 39.6646 96.3486 39.2212 96.6437 38.7463C96.9389 38.248 97.0885 37.6476 97.0885 36.9413V35.4109H102.138V36.9413C102.138 37.6437 102.288 38.2441 102.583 38.7463C102.878 39.2212 103.425 39.6646 104.22 40.0727C105.562 40.7319 107.007 41.3872 108.553 42.0465C110.1 42.6822 111.592 43.2708 113.024 43.8162L110.738 47.4931H110.742ZM102.414 28.7792C101.981 29.7995 101.355 30.6981 100.536 31.4672C99.7412 32.2167 98.7612 32.8171 97.6001 33.2723C96.4627 33.7039 95.1757 33.9197 93.7431 33.9197C92.3105 33.9197 91.0117 33.7039 89.8506 33.2723C88.7132 32.8171 87.7332 32.2167 86.9145 31.4672C86.1195 30.6942 85.4937 29.7995 85.0372 28.7792C84.6042 27.759 84.3878 26.6799 84.3878 25.5458C84.3878 24.4117 84.6042 23.3326 85.0372 22.3124C85.4937 21.2921 86.1195 20.4053 86.9145 19.6597C87.7332 18.8867 88.7132 18.2863 89.8506 17.8546C91.0117 17.3995 92.3065 17.1758 93.7431 17.1758C95.1796 17.1758 96.4627 17.4034 97.6001 17.8546C98.7612 18.2863 99.7412 18.8867 100.536 19.6597C101.355 20.4092 101.981 21.2921 102.414 22.3124C102.87 23.3326 103.094 24.4117 103.094 25.5458C103.094 26.6799 102.866 27.759 102.414 28.7792ZM97.1239 28.6419C97.9662 27.8492 98.3873 26.8172 98.3873 25.5458C98.3873 24.2744 97.9662 23.2424 97.1239 22.4497C96.3053 21.6571 95.1796 21.2568 93.7431 21.2568C92.3065 21.2568 91.173 21.6531 90.3308 22.4497C89.5121 23.2424 89.1028 24.2744 89.1028 25.5458C89.1028 26.8172 89.5121 27.8492 90.3308 28.6419C91.173 29.4345 92.3105 29.8348 93.7431 29.8348C95.1757 29.8348 96.3013 29.4385 97.1239 28.6419ZM134.529 42.0818H115.996V18.2588H120.707V37.9301H134.529V42.0818ZM141.149 47.3597H136.438V17.3092H141.149V27.6216H145.246V32.1147H141.149V47.3597ZM155.723 31.8047C154.653 31.8047 153.677 31.6359 152.787 31.2945C151.922 30.9532 151.174 30.4783 150.536 29.8662C149.922 29.2305 149.442 28.481 149.104 27.6216C148.761 26.7387 148.592 25.7498 148.592 24.6629C148.592 23.5759 148.761 22.5988 149.104 21.7355C149.446 20.8526 149.922 20.0914 150.536 19.4557C151.174 18.82 151.925 18.3334 152.787 17.992C153.673 17.6506 154.653 17.4819 155.723 17.4819H166.85C167.92 17.4819 168.885 17.6506 169.751 17.992C170.636 18.3334 171.388 18.82 172.002 19.4557C172.639 20.0914 173.127 20.8526 173.47 21.7355C173.812 22.5988 173.981 23.572 173.981 24.6629C173.981 25.7538 173.812 26.7387 173.47 27.6216C173.127 28.4849 172.639 29.2305 172.002 29.8662C171.388 30.4783 170.636 30.9571 169.751 31.2945C168.885 31.6359 167.92 31.8047 166.85 31.8047H155.723ZM176.134 38.5423H163.678V47.3557H158.9V38.5423H146.443V34.3906H176.138V38.5423H176.134ZM166.338 27.653C167.247 27.653 167.964 27.3705 168.487 26.8015C169.011 26.2325 169.27 25.5183 169.27 24.659C169.27 23.7996 169.007 23.0815 168.487 22.5164C167.964 21.9278 167.247 21.6335 166.338 21.6335H156.235C155.779 21.6335 155.369 21.7238 155.007 21.9043C154.645 22.0612 154.334 22.2771 154.086 22.5517C153.834 22.8225 153.641 23.1404 153.508 23.5053C153.37 23.8702 153.303 24.2548 153.303 24.6629C153.303 25.5262 153.563 26.2404 154.086 26.8054C154.61 27.3744 155.326 27.6569 156.235 27.6569H166.338V27.653Z" fill="white"/>
<defs>
<linearGradient id="paint0_linear_264_3725" x1="39.7591" y1="27.8633" x2="15.3543" y2="41.9853" gradientUnits="userSpaceOnUse">
<stop stop-color="#80D6F7"/>
<stop offset="1" stop-color="white" stop-opacity="0"/>
</linearGradient>
</defs>
</svg>
