<svg width="183" height="65" viewBox="0 0 183 65" fill="none" xmlns="http://www.w3.org/2000/svg">
<path d="M70.4028 35.4154C70.4028 36.5966 70.1981 37.6836 69.7888 38.6843C69.3794 39.6614 68.789 40.5012 68.0137 41.2036C67.2619 41.9061 66.3527 42.4515 65.2821 42.8361C64.2115 43.2207 63.019 43.413 61.6965 43.413C60.374 43.413 59.1814 43.2207 58.1109 42.8361C57.0403 42.4515 56.1193 41.9061 55.3478 41.2036C54.5961 40.5012 54.0175 39.6614 53.6082 38.6843C53.1988 37.6875 52.9941 36.5966 52.9941 35.4154V25.75C52.9941 24.5688 53.1988 23.4936 53.6082 22.5164C54.0175 21.5197 54.5961 20.6681 55.3478 19.9657C56.1232 19.2632 57.0442 18.7178 58.1109 18.3332C59.1814 17.9486 60.374 17.7563 61.6965 17.7563C63.019 17.7563 64.2115 17.9486 65.2821 18.3332C66.3527 18.7178 67.2619 19.2632 68.0137 19.9657C68.789 20.6681 69.3794 21.5197 69.7888 22.5164C70.1981 23.4936 70.4028 24.5688 70.4028 25.75V35.4154ZM78.3573 47.3607H73.646V17.309H78.3573V27.6218H82.4546V32.1151H78.3573V47.3607ZM57.7055 34.9013C57.7055 36.263 58.0361 37.3304 58.6934 38.0995C59.3546 38.8726 60.3543 39.2572 61.6965 39.2572C63.0386 39.2572 64.0384 38.8726 64.6996 38.0995C65.3608 37.3265 65.6915 36.263 65.6915 34.9013V26.2562C65.6915 24.8945 65.3608 23.8271 64.6996 23.058C64.0384 22.2849 63.0386 21.9003 61.6965 21.9003C60.3543 21.9003 59.3507 22.2849 58.6934 23.058C58.0321 23.831 57.7055 24.8945 57.7055 26.2562V34.9013ZM111.226 36.4357H106.515V17.309H111.226V36.4357ZM110.746 47.4942C109.243 46.9055 107.719 46.2816 106.173 45.6223C104.626 44.9866 103.099 44.3195 101.599 43.6131C101.213 43.4326 100.859 43.2403 100.54 43.0362C100.245 42.8322 99.938 42.6163 99.6192 42.3887C99.3004 42.6163 98.9816 42.8322 98.6628 43.0362C98.3676 43.2403 98.0251 43.4326 97.6394 43.6131C96.1359 44.3155 94.6127 44.9866 93.0659 45.6223C91.519 46.2816 89.9958 46.9055 88.4923 47.4942L86.2055 43.8172C87.6382 43.2717 89.1299 42.683 90.6768 42.0473C92.2236 41.3881 93.6681 40.7327 95.0102 40.0734C95.8053 39.6653 96.3524 39.2219 96.6476 38.747C96.9428 38.2487 97.0923 37.6483 97.0923 36.9419V35.4115H102.142V36.9419C102.142 37.6443 102.292 38.2447 102.587 38.747C102.882 39.2219 103.429 39.6653 104.224 40.0734C105.566 40.7327 107.011 41.3881 108.558 42.0473C110.105 42.683 111.596 43.2717 113.029 43.8172L110.742 47.4942H110.746ZM102.418 28.7795C101.985 29.7998 101.359 30.6984 100.54 31.4676C99.7451 32.2171 98.7651 32.8175 97.604 33.2727C96.4665 33.7044 95.1795 33.9202 93.7468 33.9202C92.3141 33.9202 91.0152 33.7044 89.8541 33.2727C88.7167 32.8175 87.7366 32.2171 86.9179 31.4676C86.1229 30.6945 85.4971 29.7998 85.0405 28.7795C84.6075 27.7592 84.3911 26.68 84.3911 25.5459C84.3911 24.4118 84.6075 23.3327 85.0405 22.3124C85.4971 21.2921 86.1229 20.4052 86.9179 19.6596C87.7366 18.8865 88.7167 18.2861 89.8541 17.8544C91.0152 17.3992 92.3102 17.1755 93.7468 17.1755C95.1834 17.1755 96.4665 17.4031 97.604 17.8544C98.7651 18.2861 99.7451 18.8865 100.54 19.6596C101.359 20.4091 101.985 21.2921 102.418 22.3124C102.874 23.3327 103.099 24.4118 103.099 25.5459C103.099 26.68 102.87 27.7592 102.418 28.7795ZM97.1277 28.6421C97.97 27.8495 98.3912 26.8174 98.3912 25.5459C98.3912 24.2745 97.97 23.2424 97.1277 22.4497C96.3091 21.657 95.1834 21.2567 93.7468 21.2567C92.3102 21.2567 91.1766 21.6531 90.3343 22.4497C89.5156 23.2424 89.1063 24.2745 89.1063 25.5459C89.1063 26.8174 89.5156 27.8495 90.3343 28.6421C91.1766 29.4348 92.3141 29.8351 93.7468 29.8351C95.1795 29.8351 96.3051 29.4388 97.1277 28.6421ZM134.535 42.0826H116.001V18.2586H120.712V37.9308H134.535V42.0826ZM141.155 47.3607H136.444V17.309H141.155V27.6218H145.252V32.1151H141.155V47.3607ZM155.73 31.8051C154.659 31.8051 153.683 31.6363 152.794 31.2949C151.928 30.9535 151.18 30.4787 150.542 29.8665C149.928 29.2308 149.448 28.4813 149.11 27.6218C148.767 26.7389 148.598 25.75 148.598 24.663C148.598 23.576 148.767 22.5988 149.11 21.7355C149.452 20.8525 149.928 20.0912 150.542 19.4555C151.18 18.8198 151.932 18.3332 152.794 17.9918C153.679 17.6504 154.659 17.4816 155.73 17.4816H166.857C167.927 17.4816 168.892 17.6504 169.757 17.9918C170.643 18.3332 171.395 18.8198 172.009 19.4555C172.646 20.0912 173.135 20.8525 173.477 21.7355C173.819 22.5988 173.989 23.572 173.989 24.663C173.989 25.7539 173.819 26.7389 173.477 27.6218C173.135 28.4852 172.646 29.2308 172.009 29.8665C171.395 30.4787 170.643 30.9574 169.757 31.2949C168.892 31.6363 167.927 31.8051 166.857 31.8051H155.73ZM176.142 38.543H163.684V47.3568H158.906V38.543H146.449V34.3911H176.146V38.543H176.142ZM166.345 27.6532C167.254 27.6532 167.971 27.3707 168.494 26.8017C169.018 26.2327 169.277 25.5185 169.277 24.659C169.277 23.7996 169.014 23.0815 168.494 22.5164C167.971 21.9278 167.254 21.6335 166.345 21.6335H156.241C155.785 21.6335 155.376 21.7237 155.013 21.9042C154.651 22.0612 154.34 22.277 154.092 22.5517C153.841 22.8225 153.648 23.1404 153.514 23.5053C153.376 23.8703 153.309 24.2549 153.309 24.663C153.309 25.5263 153.569 26.2405 154.092 26.8056C154.616 27.3746 155.332 27.6572 156.241 27.6572H166.345V27.6532Z" fill="#18254C"/>
<path d="M42.9341 24.8373C41.8025 24.8373 40.8828 25.7571 40.8828 26.8888C40.8828 28.0206 41.8025 28.9404 42.9341 28.9404C44.0657 28.9404 44.9854 28.0206 44.9854 26.8888C44.9854 25.7571 44.0657 24.8373 42.9341 24.8373Z" fill="#18254C"/>
<path d="M35.9203 36.3793L32.5117 38.7805L37.0211 48.4534H41.5476L35.9203 36.3793Z" fill="#18254C"/>
<path d="M38.9266 27.17L26.4308 35.9664L26.4923 33.5311C26.5094 32.791 26.1265 32.0952 25.4872 31.72C24.8479 31.3414 24.0547 31.338 23.412 31.7098L19.1898 34.1587L24.7761 22.1732L29.2923 31.8667L32.6975 29.4689L26.6325 16.4534H22.9128L12.988 37.7502L12.9231 37.7878L12.9504 37.8355L8 48.4532H12.5231L16.1641 40.6392L22.2975 37.0851L22.2257 39.9331C22.2052 40.7074 22.6257 41.4236 23.3094 41.7886C23.6137 41.9489 23.9453 42.0308 24.277 42.0308C24.694 42.0308 25.1077 41.9046 25.4599 41.6556L41.2924 30.5126L38.9266 27.17Z" fill="#18254C"/>
</svg>
