<svg  viewBox="0 0 37 33" fill="none" xmlns="http://www.w3.org/2000/svg">
<path d="M34.9341 8.83728C33.8025 8.83728 32.8828 9.75706 32.8828 10.8888C32.8828 12.0206 33.8025 12.9404 34.9341 12.9404C36.0657 12.9404 36.9854 12.0206 36.9854 10.8888C36.9854 9.75706 36.0657 8.83728 34.9341 8.83728Z" fill="#18254C"/>
<path d="M27.9203 20.3793L24.5117 22.7805L29.0211 32.4534H33.5476L27.9203 20.3793Z" fill="#18254C"/>
<path d="M30.9266 11.17L18.4308 19.9664L18.4923 17.5311C18.5094 16.791 18.1265 16.0952 17.4872 15.72C16.8479 15.3414 16.0547 15.338 15.412 15.7098L11.1898 18.1587L16.7761 6.17323L21.2923 15.8667L24.6975 13.4689L18.6325 0.453369H14.9128L4.98804 21.7502L4.92309 21.7878L4.95044 21.8355L0 32.4532H4.52309L8.16412 24.6392L14.2975 21.0851L14.2257 23.9331C14.2052 24.7074 14.6257 25.4236 15.3094 25.7886C15.6137 25.9489 15.9453 26.0308 16.277 26.0308C16.694 26.0308 17.1077 25.9046 17.4599 25.6556L33.2924 14.5126L30.9266 11.17Z" fill="#18254C"/>
</svg>
