<svg viewBox="0 0 37 33" fill="none" xmlns="http://www.w3.org/2000/svg">
<path d="M34.9321 8.83716C33.8005 8.83716 32.8809 9.75464 32.8809 10.8836C32.8809 12.0125 33.8005 12.93 34.9321 12.93C36.0637 12.93 36.9833 12.0125 36.9833 10.8836C36.9833 9.75464 36.0637 8.83716 34.9321 8.83716Z" fill="#80D6F7"/>
<path d="M27.9221 20.3799L24.5137 22.781L29.0229 32.4538H33.5493L27.9221 20.3799Z" fill="white"/>
<path d="M30.9255 11.1698L18.4302 19.966L18.4917 17.5307C18.5088 16.7906 18.1259 16.0948 17.4866 15.7197C16.8473 15.3411 16.0542 15.3377 15.4115 15.7094L11.1894 18.1583L16.7755 6.17311L21.2916 15.8663L24.6967 13.4686L18.6319 0.453369H14.9124L4.98788 21.7498L4.92292 21.7873L4.95027 21.835L0 32.4525H4.52293L8.16385 24.6386L14.297 21.0847L14.2252 23.9326C14.2047 24.7068 14.6252 25.4231 15.3089 25.788C15.6132 25.9483 15.9448 26.0302 16.2764 26.0302C16.6935 26.0302 17.1072 25.904 17.4593 25.655L33.2913 14.5123L30.9255 11.1698Z" fill="white"/>
<path d="M16.2793 26.0313C15.9477 26.0313 15.616 25.9529 15.3118 25.7891C14.628 25.4242 14.2075 24.7045 14.2281 23.9337L14.2998 21.0858L6.98725 25.3253L4.92578 21.785L15.4143 15.7037C16.0571 15.3319 16.8502 15.3353 17.4895 15.7139C18.1288 16.0925 18.5151 16.7849 18.4946 17.525L18.433 19.9603L30.9284 11.1641L33.2941 14.5065L17.4621 25.6493C17.11 25.8983 16.6963 26.0245 16.2793 26.0245V26.0313Z" fill="url(#paint0_linear_264_3703)"/>
<defs>
<linearGradient id="paint0_linear_264_3703" x1="31.7591" y1="11.8633" x2="7.35435" y2="25.9853" gradientUnits="userSpaceOnUse">
<stop stop-color="#80D6F7"/>
<stop offset="1" stop-color="white" stop-opacity="0"/>
</linearGradient>
</defs>
</svg>
